<svg width="62" height="60" viewBox="0 0 62 60" fill="none" xmlns="http://www.w3.org/2000/svg">
<path fill-rule="evenodd" clip-rule="evenodd" d="M31 3C19.2374 3 9.6875 12.5499 9.6875 24.3125C9.6875 29.6949 12.8921 36.0944 16.8543 41.7868C22.5486 49.9708 29.667 56.7191 29.667 56.7191C30.4149 57.4263 31.5851 57.4263 32.333 56.7191C32.333 56.7191 39.4514 49.9708 45.1457 41.7868C49.1079 36.0944 52.3125 29.6949 52.3125 24.3125C52.3125 12.5499 42.7626 3 31 3ZM31 13.6563C25.1177 13.6563 20.3438 18.4303 20.3438 24.3125C20.3438 30.1948 25.1177 34.9688 31 34.9688C36.8823 34.9688 41.6562 30.1948 41.6562 24.3125C41.6562 18.4303 36.8823 13.6563 31 13.6563ZM31 17.5313C34.7433 17.5313 37.7812 20.5693 37.7812 24.3125C37.7812 28.0558 34.7433 31.0938 31 31.0938C27.2567 31.0938 24.2188 28.0558 24.2188 24.3125C24.2188 20.5693 27.2567 17.5313 31 17.5313Z" fill="currentColor"/>
</svg>
