<svg width="63" height="60" viewBox="0 0 63 60" fill="none" xmlns="http://www.w3.org/2000/svg">
<path d="M43.9157 39.2628L42.3468 40.8099C42.3468 40.8099 38.6178 44.4879 28.4395 34.4488C18.2612 24.4099 21.9901 20.7321 21.9901 20.7321L22.978 19.7577C25.4118 17.3574 25.6412 13.5036 23.5177 10.6902L19.1745 4.93518C16.5465 1.45305 11.4682 0.993063 8.45605 3.96399L3.04966 9.29635C1.55608 10.7695 0.555192 12.6791 0.676574 14.7975C0.987091 20.217 3.45906 31.8777 17.2528 45.4825C31.8805 59.9097 45.6056 60.4831 51.2183 59.9641C52.9935 59.8001 54.5373 58.9032 55.7815 57.6759L60.6746 52.8502C63.9775 49.5924 63.0461 44.0076 58.8202 41.729L52.2395 38.1804C49.4647 36.6843 46.0843 37.1237 43.9157 39.2628Z" fill="currentColor"/>
</svg>
