<svg xmlns="http://www.w3.org/2000/svg" xmlns:xlink="http://www.w3.org/1999/xlink"><symbol id="location" viewBox="0 0 62 60"><g fill="none">
<path fill-rule="evenodd" clip-rule="evenodd" d="M31 3C19.2374 3 9.6875 12.5499 9.6875 24.3125C9.6875 29.6949 12.8921 36.0944 16.8543 41.7868C22.5486 49.9708 29.667 56.7191 29.667 56.7191C30.4149 57.4263 31.5851 57.4263 32.333 56.7191C32.333 56.7191 39.4514 49.9708 45.1457 41.7868C49.1079 36.0944 52.3125 29.6949 52.3125 24.3125C52.3125 12.5499 42.7626 3 31 3ZM31 13.6563C25.1177 13.6563 20.3438 18.4303 20.3438 24.3125C20.3438 30.1948 25.1177 34.9688 31 34.9688C36.8823 34.9688 41.6562 30.1948 41.6562 24.3125C41.6562 18.4303 36.8823 13.6563 31 13.6563ZM31 17.5313C34.7433 17.5313 37.7812 20.5693 37.7812 24.3125C37.7812 28.0558 34.7433 31.0938 31 31.0938C27.2567 31.0938 24.2188 28.0558 24.2188 24.3125C24.2188 20.5693 27.2567 17.5313 31 17.5313Z" fill="currentColor"/>
</g></symbol><symbol id="phone" viewBox="0 0 63 60"><g fill="none">
<path d="M43.9157 39.2628L42.3468 40.8099C42.3468 40.8099 38.6178 44.4879 28.4395 34.4488C18.2612 24.4099 21.9901 20.7321 21.9901 20.7321L22.978 19.7577C25.4118 17.3574 25.6412 13.5036 23.5177 10.6902L19.1745 4.93518C16.5465 1.45305 11.4682 0.993063 8.45605 3.96399L3.04966 9.29635C1.55608 10.7695 0.555192 12.6791 0.676574 14.7975C0.987091 20.217 3.45906 31.8777 17.2528 45.4825C31.8805 59.9097 45.6056 60.4831 51.2183 59.9641C52.9935 59.8001 54.5373 58.9032 55.7815 57.6759L60.6746 52.8502C63.9775 49.5924 63.0461 44.0076 58.8202 41.729L52.2395 38.1804C49.4647 36.6843 46.0843 37.1237 43.9157 39.2628Z" fill="currentColor"/>
</g></symbol></svg>